<svg width="709" height="711" viewBox="0 0 709 711" fill="none" xmlns="http://www.w3.org/2000/svg">
<mask id="path-1-outside-1_1968_39" maskUnits="userSpaceOnUse" x="0.972656" y="0.972656" width="708" height="711" fill="black">
<rect fill="white" x="0.972656" y="0.972656" width="708" height="711"/>
<path d="M703.809 355.987C703.809 549.294 547.593 706.001 354.891 706.001C162.189 706.001 5.97266 549.294 5.97266 355.987C5.97266 162.679 162.189 5.97266 354.891 5.97266C547.593 5.97266 703.809 162.679 703.809 355.987Z"/>
</mask>
<path d="M698.809 355.987C698.809 546.547 544.817 701.001 354.891 701.001V711.001C550.369 711.001 708.809 552.041 708.809 355.987H698.809ZM354.891 701.001C164.965 701.001 10.9727 546.547 10.9727 355.987H0.972656C0.972656 552.041 159.412 711.001 354.891 711.001V701.001ZM10.9727 355.987C10.9727 165.426 164.965 10.9727 354.891 10.9727V0.972656C159.412 0.972656 0.972656 159.933 0.972656 355.987H10.9727ZM354.891 10.9727C544.817 10.9727 698.809 165.426 698.809 355.987H708.809C708.809 159.933 550.369 0.972656 354.891 0.972656V10.9727Z" fill="#232429" mask="url(#path-1-outside-1_1968_39)"/>
<mask id="path-3-outside-2_1968_39" maskUnits="userSpaceOnUse" x="683.5" y="243" width="26" height="230" fill="black">
<rect fill="white" x="683.5" y="243" width="26" height="230"/>
</mask>
<path d="M688.863 472.815C714.039 399.807 715.548 319.747 690.375 243.219L685.625 244.781C710.452 320.253 708.961 399.193 684.137 471.185L688.863 472.815Z" fill="#B2B4BA" mask="url(#path-3-outside-2_1968_39)"/>
<g filter="url(#filter0_f_1968_39)">
<circle cx="356" cy="356" r="246" fill="white" fill-opacity="0.1"/>
</g>
<circle cx="356" cy="356" r="182.018" fill="white"/>
<defs>
<filter id="filter0_f_1968_39" x="29" y="29" width="654" height="654" filterUnits="userSpaceOnUse" color-interpolation-filters="sRGB">
<feFlood flood-opacity="0" result="BackgroundImageFix"/>
<feBlend mode="normal" in="SourceGraphic" in2="BackgroundImageFix" result="shape"/>
<feGaussianBlur stdDeviation="40.5" result="effect1_foregroundBlur_1968_39"/>
</filter>
</defs>
</svg>
